<mxfile host="Electron" modified="2023-12-29T13:45:30.418Z" agent="Mozilla/5.0 (X11; Linux x86_64) AppleWebKit/537.36 (KHTML, like Gecko) draw.io/22.1.11 Chrome/114.0.5735.289 Electron/25.9.6 Safari/537.36" etag="HPqwf_JB8SaFSUSQwY12" version="22.1.11" type="device">
  <diagram name="Page-1" id="WbFY9b_eNLDxN-9Mqe8G">
    <mxGraphModel dx="1247" dy="2062" grid="1" gridSize="10" guides="1" tooltips="1" connect="1" arrows="1" fold="1" page="1" pageScale="1" pageWidth="827" pageHeight="1169" background="#141414" math="0" shadow="0">
      <root>
        <mxCell id="0" />
        <mxCell id="1" parent="0" />
        <mxCell id="h4gSVYA8LQyx4nT1BWoy-1" value="&lt;h1&gt;About&lt;/h1&gt;&lt;p&gt;This Section is about me&lt;br&gt;Here I will write important stuff about myself&lt;/p&gt;" style="text;html=1;strokeColor=none;fillColor=none;spacing=5;spacingTop=-20;whiteSpace=wrap;overflow=hidden;rounded=0;fontColor=#F5F5F5;" vertex="1" parent="1">
          <mxGeometry x="50" y="230" width="150" height="80" as="geometry" />
        </mxCell>
        <mxCell id="h4gSVYA8LQyx4nT1BWoy-8" value="&lt;h1 style=&quot;font-size: 31px;&quot;&gt;MORITZ&lt;br style=&quot;font-size: 31px;&quot;&gt;FLUECHTER&lt;/h1&gt;" style="text;html=1;strokeColor=none;fillColor=none;spacing=5;spacingTop=-20;whiteSpace=wrap;overflow=hidden;rounded=0;fontColor=#F5F5F5;fontSize=31;" vertex="1" parent="1">
          <mxGeometry x="105" y="-111" width="280" height="115" as="geometry" />
        </mxCell>
        <mxCell id="h4gSVYA8LQyx4nT1BWoy-9" value="&lt;h1&gt;Research&lt;/h1&gt;&lt;p&gt;Links to reserach and other important stuff&lt;/p&gt;" style="text;html=1;strokeColor=none;fillColor=none;spacing=5;spacingTop=-20;whiteSpace=wrap;overflow=hidden;rounded=0;fontColor=#F5F5F5;" vertex="1" parent="1">
          <mxGeometry x="280" y="335" width="150" height="80" as="geometry" />
        </mxCell>
        <mxCell id="h4gSVYA8LQyx4nT1BWoy-10" value="&lt;h1&gt;Projects&lt;/h1&gt;&lt;div&gt;Current Projects,&lt;/div&gt;&lt;div&gt;stuff im doing&lt;/div&gt;" style="text;html=1;strokeColor=none;fillColor=none;spacing=5;spacingTop=-20;whiteSpace=wrap;overflow=hidden;rounded=0;fontColor=#F5F5F5;" vertex="1" parent="1">
          <mxGeometry x="550" y="280" width="150" height="80" as="geometry" />
        </mxCell>
        <mxCell id="h4gSVYA8LQyx4nT1BWoy-11" value="&lt;h1&gt;Interests&lt;/h1&gt;&lt;div&gt;Things Im interested in!&lt;/div&gt;" style="text;html=1;strokeColor=none;fillColor=none;spacing=5;spacingTop=-20;whiteSpace=wrap;overflow=hidden;rounded=0;fontColor=#F5F5F5;" vertex="1" parent="1">
          <mxGeometry x="540" y="60" width="150" height="80" as="geometry" />
        </mxCell>
        <mxCell id="h4gSVYA8LQyx4nT1BWoy-12" value="" style="verticalAlign=top;verticalLabelPosition=bottom;labelPosition=center;align=center;html=1;outlineConnect=0;gradientDirection=north;strokeWidth=2;shape=mxgraph.networks.switch;fillColor=#858585;strokeColor=#000000;aspect=fixed;" vertex="1" parent="1">
          <mxGeometry x="110" y="-20" width="66.67" height="20" as="geometry" />
        </mxCell>
        <mxCell id="h4gSVYA8LQyx4nT1BWoy-13" value="" style="verticalAlign=top;verticalLabelPosition=bottom;labelPosition=center;align=center;html=1;outlineConnect=0;gradientDirection=north;strokeWidth=2;shape=mxgraph.networks.switch;fillColor=#858585;strokeColor=#000000;aspect=fixed;" vertex="1" parent="1">
          <mxGeometry x="199.99999999999994" y="100" width="66.67" height="20" as="geometry" />
        </mxCell>
        <mxCell id="h4gSVYA8LQyx4nT1BWoy-14" value="" style="verticalAlign=top;verticalLabelPosition=bottom;labelPosition=center;align=center;html=1;outlineConnect=0;gradientDirection=north;strokeWidth=2;shape=mxgraph.networks.switch;fillColor=#858585;strokeColor=#000000;aspect=fixed;" vertex="1" parent="1">
          <mxGeometry x="373.34000000000003" y="210" width="66.67" height="20" as="geometry" />
        </mxCell>
        <mxCell id="h4gSVYA8LQyx4nT1BWoy-16" value="" style="verticalAlign=top;verticalLabelPosition=bottom;labelPosition=center;align=center;html=1;outlineConnect=0;gradientDirection=north;strokeWidth=2;shape=mxgraph.networks.switch;fillColor=#858585;strokeColor=#000000;aspect=fixed;" vertex="1" parent="1">
          <mxGeometry x="300" y="320" width="66.67" height="20" as="geometry" />
        </mxCell>
        <mxCell id="h4gSVYA8LQyx4nT1BWoy-17" value="" style="verticalAlign=top;verticalLabelPosition=bottom;labelPosition=center;align=center;html=1;outlineConnect=0;gradientDirection=north;strokeWidth=2;shape=mxgraph.networks.switch;fillColor=#858585;strokeColor=#000000;aspect=fixed;" vertex="1" parent="1">
          <mxGeometry x="573.33" y="260" width="66.67" height="20" as="geometry" />
        </mxCell>
        <mxCell id="h4gSVYA8LQyx4nT1BWoy-18" value="" style="verticalAlign=top;verticalLabelPosition=bottom;labelPosition=center;align=center;html=1;outlineConnect=0;gradientDirection=north;strokeWidth=2;shape=mxgraph.networks.switch;fillColor=#858585;strokeColor=#000000;aspect=fixed;" vertex="1" parent="1">
          <mxGeometry x="456.66999999999996" y="100" width="66.67" height="20" as="geometry" />
        </mxCell>
        <mxCell id="h4gSVYA8LQyx4nT1BWoy-19" value="" style="verticalAlign=top;verticalLabelPosition=bottom;labelPosition=center;align=center;html=1;outlineConnect=0;gradientDirection=north;strokeWidth=2;shape=mxgraph.networks.switch;fillColor=#858585;strokeColor=#000000;aspect=fixed;" vertex="1" parent="1">
          <mxGeometry x="143.32999999999998" y="240" width="66.67" height="20" as="geometry" />
        </mxCell>
        <mxCell id="h4gSVYA8LQyx4nT1BWoy-22" value="" style="endArrow=none;html=1;strokeColor=#FFFFFF;strokeWidth=2;exitX=0.5;exitY=0;exitDx=0;exitDy=0;exitPerimeter=0;entryX=0.5;entryY=1;entryDx=0;entryDy=0;entryPerimeter=0;rounded=1;" edge="1" parent="1" source="h4gSVYA8LQyx4nT1BWoy-13" target="h4gSVYA8LQyx4nT1BWoy-12">
          <mxGeometry width="50" height="50" relative="1" as="geometry">
            <mxPoint x="187" y="270" as="sourcePoint" />
            <mxPoint x="161" y="287" as="targetPoint" />
            <Array as="points">
              <mxPoint x="233" y="50" />
              <mxPoint x="143" y="50" />
            </Array>
          </mxGeometry>
        </mxCell>
        <mxCell id="h4gSVYA8LQyx4nT1BWoy-23" value="" style="endArrow=none;html=1;strokeColor=#FFFFFF;strokeWidth=2;exitX=0.5;exitY=0;exitDx=0;exitDy=0;entryX=0.5;entryY=1;entryDx=0;entryDy=0;entryPerimeter=0;exitPerimeter=0;rounded=1;" edge="1" parent="1" source="h4gSVYA8LQyx4nT1BWoy-19" target="h4gSVYA8LQyx4nT1BWoy-13">
          <mxGeometry width="50" height="50" relative="1" as="geometry">
            <mxPoint x="243" y="110" as="sourcePoint" />
            <mxPoint x="153" y="10" as="targetPoint" />
            <Array as="points">
              <mxPoint x="177" y="180" />
              <mxPoint x="233" y="180" />
            </Array>
          </mxGeometry>
        </mxCell>
        <mxCell id="h4gSVYA8LQyx4nT1BWoy-24" value="" style="endArrow=none;html=1;strokeColor=#FFFFFF;strokeWidth=2;exitX=1;exitY=0.5;exitDx=0;exitDy=0;entryX=0;entryY=0.5;entryDx=0;entryDy=0;entryPerimeter=0;exitPerimeter=0;rounded=1;" edge="1" parent="1" source="h4gSVYA8LQyx4nT1BWoy-19" target="h4gSVYA8LQyx4nT1BWoy-14">
          <mxGeometry width="50" height="50" relative="1" as="geometry">
            <mxPoint x="183" y="250" as="sourcePoint" />
            <mxPoint x="243" y="130" as="targetPoint" />
            <Array as="points">
              <mxPoint x="300" y="250" />
              <mxPoint x="300" y="220" />
            </Array>
          </mxGeometry>
        </mxCell>
        <mxCell id="h4gSVYA8LQyx4nT1BWoy-25" value="" style="endArrow=none;html=1;strokeColor=#FFFFFF;strokeWidth=2;exitX=0.5;exitY=0;exitDx=0;exitDy=0;entryX=0.5;entryY=1;entryDx=0;entryDy=0;entryPerimeter=0;exitPerimeter=0;rounded=1;" edge="1" parent="1" source="h4gSVYA8LQyx4nT1BWoy-16" target="h4gSVYA8LQyx4nT1BWoy-14">
          <mxGeometry width="50" height="50" relative="1" as="geometry">
            <mxPoint x="220" y="259" as="sourcePoint" />
            <mxPoint x="383" y="230" as="targetPoint" />
            <Array as="points">
              <mxPoint x="333" y="280" />
              <mxPoint x="407" y="280" />
            </Array>
          </mxGeometry>
        </mxCell>
        <mxCell id="h4gSVYA8LQyx4nT1BWoy-26" value="" style="endArrow=none;html=1;strokeColor=#FFFFFF;strokeWidth=2;exitX=1;exitY=0.5;exitDx=0;exitDy=0;entryX=0.5;entryY=0;entryDx=0;entryDy=0;entryPerimeter=0;exitPerimeter=0;rounded=1;" edge="1" parent="1" source="h4gSVYA8LQyx4nT1BWoy-14" target="h4gSVYA8LQyx4nT1BWoy-17">
          <mxGeometry width="50" height="50" relative="1" as="geometry">
            <mxPoint x="220" y="259" as="sourcePoint" />
            <mxPoint x="383" y="230" as="targetPoint" />
            <Array as="points">
              <mxPoint x="607" y="220" />
            </Array>
          </mxGeometry>
        </mxCell>
        <mxCell id="h4gSVYA8LQyx4nT1BWoy-27" value="" style="endArrow=none;html=1;strokeColor=#FFFFFF;strokeWidth=2;exitX=0.5;exitY=0;exitDx=0;exitDy=0;entryX=0.5;entryY=1;entryDx=0;entryDy=0;entryPerimeter=0;exitPerimeter=0;rounded=1;" edge="1" parent="1" source="h4gSVYA8LQyx4nT1BWoy-14" target="h4gSVYA8LQyx4nT1BWoy-18">
          <mxGeometry width="50" height="50" relative="1" as="geometry">
            <mxPoint x="450" y="230" as="sourcePoint" />
            <mxPoint x="533" y="270" as="targetPoint" />
            <Array as="points">
              <mxPoint x="407" y="170" />
              <mxPoint x="490" y="170" />
            </Array>
          </mxGeometry>
        </mxCell>
        <mxCell id="h4gSVYA8LQyx4nT1BWoy-28" value="" style="endArrow=none;html=1;strokeColor=#FFFFFF;strokeWidth=2;exitX=1;exitY=0.5;exitDx=0;exitDy=0;entryX=0;entryY=0.5;entryDx=0;entryDy=0;entryPerimeter=0;exitPerimeter=0;rounded=1;" edge="1" parent="1" source="h4gSVYA8LQyx4nT1BWoy-13" target="h4gSVYA8LQyx4nT1BWoy-18">
          <mxGeometry width="50" height="50" relative="1" as="geometry">
            <mxPoint x="417" y="220" as="sourcePoint" />
            <mxPoint x="500" y="130" as="targetPoint" />
          </mxGeometry>
        </mxCell>
        <mxCell id="h4gSVYA8LQyx4nT1BWoy-36" value="" style="fontColor=#0066CC;verticalAlign=top;verticalLabelPosition=bottom;labelPosition=center;align=center;html=1;outlineConnect=0;fillColor=#858585;strokeColor=#000000;gradientColor=none;gradientDirection=north;strokeWidth=2;shape=mxgraph.networks.pc;" vertex="1" parent="1">
          <mxGeometry x="440.01" y="-75" width="100" height="70" as="geometry" />
        </mxCell>
        <mxCell id="h4gSVYA8LQyx4nT1BWoy-37" value="" style="endArrow=none;html=1;strokeColor=#FFFFFF;strokeWidth=2;exitX=0.5;exitY=1;exitDx=0;exitDy=0;entryX=0.5;entryY=0;entryDx=0;entryDy=0;entryPerimeter=0;exitPerimeter=0;rounded=1;" edge="1" parent="1" source="h4gSVYA8LQyx4nT1BWoy-36" target="h4gSVYA8LQyx4nT1BWoy-18">
          <mxGeometry width="50" height="50" relative="1" as="geometry">
            <mxPoint x="277" y="120" as="sourcePoint" />
            <mxPoint x="467" y="120" as="targetPoint" />
          </mxGeometry>
        </mxCell>
      </root>
    </mxGraphModel>
  </diagram>
</mxfile>
